#!OML:ASF F:\VICON\USERDATA\INSTALL\rory3\rory3.ASF
:FULLY-SPECIFIED
:DEGREES
2130
root -2.25756 17.5371 2.84175 -171.035 -72.2453 190.191
lowerback 14.6279 2.67433 -1.24813
upperback 5.00579 3.10401 1.63868
thorax -3.05998 1.39305 1.89792
lowerneck -18.764 8.68686 -3.64908
upperneck 15.1282 13.2022 -2.25519
head 7.65312 5.82694 1.38394
rclavicle -8.84592e-014 4.4329e-014
rhumerus -22.5404 8.34634 -91.7795
rradius 29.4906
rwrist 28.8535
rhand -14.6256 -2.0454
rfingers 7.12502
rthumb 11.5258 -31.7085
lclavicle -8.84592e-014 4.4329e-014
lhumerus -18.2464 -29.6936 98.6573
lradius 41.7142
lwrist -17.6195
lhand -14.7496 27.0797
lfingers 7.12502
lthumb 11.4062 56.7495
rfemur -20.0955 -3.32335 18.4287
rtibia 41.3756
rfoot -1.34494 20.7655
rtoes 17.4133
lfemur -45.0296 4.42248 -18.4515
ltibia 25.5967
lfoot 3.93932 7.49361
ltoes -5.99574
2131
root -2.33705 17.5426 2.82721 -171.257 -72.7757 190.595
lowerback 14.8908 2.75564 -1.31016
upperback 5.05917 3.19565 1.72693
thorax -3.15703 1.4345 2.00092
lowerneck -18.7477 8.65162 -3.65867
upperneck 15.2123 13.1628 -2.2661
head 7.67911 5.8029 1.37966
rclavicle 3.18055e-015 1.19271e-015
rhumerus -22.7993 7.62126 -91.813
rradius 30.1303
rwrist 28.099
rhand -16.0291 -2.83869
rfingers 7.12502
rthumb 10.1721 -32.5728
lclavicle 3.18055e-015 1.19271e-015
lhumerus -18.1737 -30.2729 98.7157
lradius 41.7814
lwrist -18.0311
lhand -15.1555 26.2986
lfingers 7.12502
lthumb 11.0148 55.9896
rfemur -20.6286 -4.00696 18.3923
rtibia 42.2812
rfoot 0.61289 20.7503
rtoes 16.8143
lfemur -45.1045 4.52371 -18.6542
ltibia 25.6595
lfoot 3.70516 6.65397
ltoes -6.77932
2132
root -2.41545 17.5562 2.81381 -171.693 -73.2353 191.286
lowerback 15.1027 2.72567 -1.3117
upperback 5.14579 3.14919 1.86535
thorax -3.18487 1.40596 2.14969
lowerneck -18.9322 8.66911 -3.97224
upperneck 15.181 13.2612 -2.17533
head 7.67155 5.84031 1.47237
rclavicle 1.27222e-014 -2.82274e-014
rhumerus -22.9748 7.59665 -91.8075
rradius 31.2043
rwrist 27.8062
rhand -17.5822 -3.09182
rfingers 7.12502
rthumb 8.67354 -32.8936
lclavicle 1.27222e-014 -2.82274e-014
lhumerus -18.0426 -30.3329 98.6688
lradius 41.9499
lwrist -18.3951
lhand -15.9314 25.5495
lfingers 7.12502
lthumb 10.2663 55.279
rfemur -21.1512 -4.02839 18.4475
rtibia 43.0684
rfoot 2.24437 20.2498
rtoes 16.5353
lfemur -45.209 4.68131 -18.7624
ltibia 25.716
lfoot 3.45182 5.93962
ltoes -7.11067
2133
root -2.49303 17.5803 2.80095 -172.502 -73.7032 192.361
lowerback 15.3259 2.72039 -1.1447
upperback 5.16257 3.16236 1.92709
thorax -3.28165 1.41076 2.11052
lowerneck -18.9063 8.65274 -4.07761
upperneck 15.1009 13.2231 -1.97778
head 7.61825 5.84297 1.54109
rclavicle 3.73715e-014 1.11319e-014
rhumerus -23.2498 7.24324 -91.8303
rradius 32.4961
rwrist 29.1904
rhand -18.0802 -3.33045
rfingers 7.12502
rthumb 8.19292 -33.1516
lclavicle 3.73715e-014 1.11319e-014
lhumerus -18.1397 -30.8346 98.534
lradius 42.094
lwrist -18.2771
lhand -16.5302 25.3088
lfingers 7.12502
lthumb 9.6886 55.066
rfemur -21.6189 -3.53095 18.6038
rtibia 43.784
rfoot 3.52731 19.3843
rtoes 16.813
lfemur -45.3082 4.99815 -18.8522
ltibia 25.7949
lfoot 3.12945 5.10522
ltoes -7.29938
2134
root -2.5711 17.5953 2.78819 -172.961 -74.1807 193.093
lowerback 15.4732 2.71233 -1.05891
upperback 5.14809 3.16308 1.91469
thorax -3.37029 1.41177 2.04347
lowerneck -18.8439 8.67026 -3.93229
upperneck 15.1136 13.1935 -1.9152
head 7.61649 5.84511 1.53395
rclavicle -1.8487e-014 -1.21259e-014
rhumerus -23.4922 6.86108 -91.8459
rradius 33.8125
rwrist 31.0758
rhand -17.5579 -4.02731
rfingers 7.12502
rthumb 8.69697 -33.8282
lclavicle -1.8487e-014 -1.21259e-014
lhumerus -18.321 -31.2204 98.3659
lradius 42.1182
lwrist -18.1414
lhand -16.3463 25.6306
lfingers 7.12502
lthumb 9.86603 55.3794
rfemur -22.12 -3.30847 18.64
rtibia 44.5068
rfoot 4.7568 18.7714
rtoes 16.7059
lfemur -45.4623 5.42454 -19.1653
ltibia 25.8965
lfoot 2.83854 4.06263
ltoes -7.86159
2135
root -2.64451 17.5954 2.77025 -173.237 -74.6874 193.61
lowerback 15.6016 2.63846 -1.13081
upperback 5.17858 3.05229 1.92608
thorax -3.40589 1.35573 2.11281
lowerneck -18.8029 8.76578 -3.78797
upperneck 15.03 13.2942 -2.00024
head 7.59641 5.89781 1.49283
rclavicle 1.76918e-014 -6.36111e-015
rhumerus -23.5806 7.33273 -92.0133
rradius 35.062
rwrist 31.5581
rhand -17.3085 -4.8365
rfingers 7.12502
rthumb 8.93769 -34.6272
lclavicle 1.76918e-014 -6.36111e-015
lhumerus -18.3354 -31.0711 98.145
lradius 41.9915
lwrist -18.137
lhand -15.5726 26.2137
lfingers 7.12502
lthumb 10.6125 55.9257
rfemur -22.6348 -3.33069 18.5974
rtibia 45.2926
rfoot 5.94729 18.3337
rtoes 16.5067
lfemur -45.6366 5.66557 -19.4118
ltibia 26.0675
lfoot 2.49984 3.19008
ltoes -8.26346
2136
root -2.71192 17.5975 2.7504 -173.622 -75.142 194.192
lowerback 15.82 2.58225 -1.17336
upperback 5.22752 2.96391 1.90664
thorax -3.46759 1.30968 2.12685
lowerneck -18.6613 8.83043 -3.69623
upperneck 14.7375 13.346 -2.06589
head 7.48578 5.93845 1.44743
rclavicle 3.33958e-014 3.71727e-014
rhumerus -23.7381 8.94895 -92.5585
rradius 36.4663
rwrist 29.7066
rhand -18.4668 -6.77987
rfingers 7.12502
rthumb 7.81976 -36.6153
lclavicle 3.33958e-014 3.71727e-014
lhumerus -18.4098 -31.1133 97.8898
lradius 41.9876
lwrist -17.591
lhand -15.0795 26.4367
lfingers 7.12502
lthumb 11.088 56.1238
rfemur -23.1465 -3.26653 18.5615
rtibia 46.1483
rfoot 6.82158 17.9382
rtoes 16.4898
lfemur -45.8337 5.86111 -19.5734
ltibia 26.3323
lfoot 2.19605 2.43597
ltoes -8.71894
2137
root -2.77518 17.6035 2.73234 -174.205 -75.5241 194.972
lowerback 16.0214 2.56753 -1.20054
upperback 5.32314 2.92894 1.91311
thorax -3.47382 1.28757 2.15125
lowerneck -18.7294 8.81548 -3.75311
upperneck 14.593 13.309 -1.91803
head 7.43408 5.94002 1.49585
rclavicle 2.56432e-014 1.86858e-014
rhumerus -23.8784 11.7192 -93.3345
rradius 38.0689
rwrist 25.7098
rhand -21.1338 -11.2031
rfingers 7.12502
rthumb 5.2452 -41.1182
lclavicle 2.56432e-014 1.86858e-014
lhumerus -18.5523 -31.125 97.6614
lradius 42.1627
lwrist -16.9707
lhand -14.4776 26.2672
lfingers 7.12502
lthumb 11.6686 55.9223
rfemur -23.7042 -3.15137 18.5664
rtibia 47.0245
rfoot 7.4469 17.7344
rtoes 15.3836
lfemur -46.0424 5.89069 -19.5449
ltibia 26.6477
lfoot 1.88786 2.00477
ltoes -8.85438
2138
root -2.8393 17.6065 2.7162 -175.062 -75.9208 195.98
lowerback 16.1636 2.51286 -1.29455
upperback 5.45376 2.83477 2.0598
thorax -3.41861 1.23349 2.37531
lowerneck -18.7787 8.84395 -3.92272
upperneck 14.4698 13.3781 -1.8653
head 7.38541 5.97511 1.54213
rclavicle 2.78299e-014 -2.5842e-015
rhumerus -23.1113 10.4771 -92.0986
rradius 38.5864
rwrist 30.8457
rhand -15.6574 -5.3406
rfingers 7.12502
rthumb 10.5307 -35.0568
lclavicle 2.78299e-014 -2.5842e-015
lhumerus -18.7146 -30.7204 97.6017
lradius 42.28
lwrist -16.5734
lhand -13.7943 25.9044
lfingers 7.12502
lthumb 12.3274 55.521
rfemur -24.1948 -3.07291 18.6087
rtibia 47.901
rfoot 7.90215 17.7992
rtoes 14.1388
lfemur -46.1857 5.99481 -19.5215
ltibia 26.9255
lfoot 1.63178 1.53242
ltoes -8.53354
2139
root -2.90606 17.6096 2.69825 -175.981 -76.347 197.043
lowerback 16.2979 2.48556 -1.3277
upperback 5.52738 2.78974 2.17751
thorax -3.41703 1.20658 2.52449
lowerneck -18.6045 8.84519 -4.06093
upperneck 14.2566 13.39 -1.84578
head 7.2751 5.98918 1.55268
rclavicle 3.39922e-014 -1.90833e-014
rhumerus -23.0115 11.8223 -92.0423
rradius 39.6517
rwrist 29.8591
rhand -15.1379 -6.0511
rfingers 7.12502
rthumb 11.0317 -35.7412
lclavicle 3.39922e-014 -1.90833e-014
lhumerus -18.9548 -30.7877 97.6353
lradius 42.2454
lwrist -15.8331
lhand -13.6468 25.7231
lfingers 7.12502
lthumb 12.4697 55.3311
rfemur -24.6409 -2.90543 18.6535
rtibia 48.8011
rfoot 7.9091 17.9433
rtoes 13.2337
lfemur -46.3166 6.3522 -19.698
ltibia 27.1339
lfoot 1.35977 0.760196
ltoes -8.77644
2140
root -2.96982 17.6185 2.69048 -175.431 -76.7787 196.779
lowerback 16.3446 2.44461 -1.38755
upperback 5.52912 2.72347 2.05865
thorax -3.43325 1.1756 2.44441
lowerneck -18.4704 8.83829 -4.01162
upperneck 14.0393 13.3469 -1.83787
head 7.18407 5.98539 1.52883
rclavicle -4.53229e-014 -2.16675e-014
rhumerus -23.0395 13.387 -92.1128
rradius 40.8201
rwrist 28.5205
rhand -15.0399 -6.93259
rfingers 7.12502
rthumb 11.1263 -36.6176
lclavicle -4.53229e-014 -2.16675e-014
lhumerus -19.1402 -31.3053 97.5422
lradius 42.2254
lwrist -14.967
lhand -13.9339 25.6273
lfingers 7.12502
lthumb 12.1928 55.2519
rfemur -25.3226 -2.88676 18.2996
rtibia 49.717
rfoot 7.71694 18.1448
rtoes 11.9882
lfemur -46.5348 6.25757 -19.9822
ltibia 27.2871
lfoot 1.07169 0.445719
ltoes -8.19601
